# xmcd CD database file
#
# Track frame offsets:
#	150
#	26637
#	53975
#	83635
#	108227
#	132752
#
# Disc length: 2103 seconds
#
# Revision: 0
# Processed by: cddbd v1.5.1PL2 Copyright (c) Steve Scherf et al.
# Submitted via: CDex 1.51
#
DISCID=43083506
DTITLE=大沢誉志幸 - FRENZY2
DYEAR=1985
DGENRE=J-Pop
TTITLE0=Lady Vanish
TTITLE1=彼女はfuture-rhythm
TTITLE2=そして僕は途方に暮れる
TTITLE3=Replica Model
TTITLE4=Scoop
TTITLE5=e-Escape
EXTD=YEAR: 1985
EXTT0=
EXTT1=
EXTT2=
EXTT3=
EXTT4=
EXTT5=
PLAYORDER=
